<?xml version="1.0" encoding="UTF-8"?>
<svg id="Layer_2" data-name="Layer 2" xmlns="http://www.w3.org/2000/svg" xmlns:xlink="http://www.w3.org/1999/xlink" viewBox="0 0 349.28 135.19">
  <defs>
    <style>
      .cls-1 {
        fill: url(#linear-gradient-2);
      }

      .cls-2 {
        fill: url(#linear-gradient);
      }
    </style>
    <linearGradient id="linear-gradient" x1="82.16" y1="259.3" x2="108" y2="259.3" gradientTransform="translate(-82.16 -209.37)" gradientUnits="userSpaceOnUse">
      <stop offset="0" stop-color="#611c60"/>
      <stop offset="1" stop-color="#273b8b"/>
    </linearGradient>
    <linearGradient id="linear-gradient-2" x1="25.83" y1="99.86" x2="59.96" y2="99.86" gradientUnits="userSpaceOnUse">
      <stop offset="0" stop-color="#232263"/>
      <stop offset=".1" stop-color="#21306b"/>
      <stop offset=".52" stop-color="#1d6589"/>
      <stop offset=".83" stop-color="#1a869b"/>
      <stop offset="1" stop-color="#1993a3"/>
      <stop offset="1" stop-color="#198da0"/>
      <stop offset="1" stop-color="#1e537e"/>
      <stop offset="1" stop-color="#212e69"/>
      <stop offset="1" stop-color="#232162"/>
    </linearGradient>
  </defs>
  <g id="Layer_1-2" data-name="Layer 1">
    <g>
      <g>
        <polygon class="cls-2" points="25.83 25.83 25.83 99.86 0 74.03 0 0 25.83 25.83"/>
        <polygon class="cls-1" points="25.83 98.66 59.96 64.53 59.96 101.06 25.83 135.19 25.83 98.66"/>
      </g>
      <g>
        <g>
          <path d="M91.84,33.62v62.87c0,.76.29,1.43.86,2.01.57.57,1.24.86,2.01.86h18.65v12.39h-19c-2.68,0-5.14-.69-7.4-2.06-2.26-1.38-4.07-3.19-5.45-5.45s-2.06-4.72-2.06-7.4V23.44"/>
          <path d="M131.1,109.69c-2.26-1.38-4.07-3.19-5.45-5.45-1.38-2.26-2.06-4.72-2.06-7.4v-36.7c0-2.68.69-5.14,2.06-7.4,1.38-2.25,3.19-4.07,5.45-5.45,2.25-1.38,4.72-2.06,7.4-2.06h37.84c2.75,0,5.26.69,7.51,2.06,2.25,1.38,4.05,3.19,5.39,5.45,1.34,2.26,2.01,4.72,2.01,7.4v24.54h-55.28v11.81c0,.76.29,1.43.86,2.01.57.57,1.24.86,2.01.86h52.41v12.39h-52.75c-2.68,0-5.14-.69-7.4-2.06ZM135.97,73.1h42.78v-12.61c0-.76-.27-1.43-.8-2.01-.54-.57-1.19-.86-1.95-.86h-37.16c-.77,0-1.43.29-2.01.86-.57.57-.86,1.24-.86,2.01v12.61Z"/>
          <path d="M203.29,99.37v-54.13h52.75c2.75,0,5.26.69,7.51,2.06,2.25,1.38,4.05,3.19,5.39,5.45,1.34,2.26,2.01,4.72,2.01,7.4v51.61h-12.39v-51.26c0-.76-.29-1.43-.86-2.01-.57-.57-1.24-.86-2.01-.86h-37.16c-.77,0-1.43.29-2.01.86-.57.57-.86,1.24-.86,2.01v51.26"/>
        </g>
        <path d="M341.88,74.31c-2.26-1.34-4.76-2.01-7.51-2.01h-37.5c-.77,0-1.43-.29-2.01-.86-.57-.57-.86-1.24-.86-2.01v-8.94c0-.76.29-1.43.86-2.01.51-.51,1.1-.75,1.76-.81v-.05h52.42c-.29-1.72-.87-3.35-1.77-4.87-1.34-2.25-3.14-4.07-5.39-5.45-2.26-1.38-4.76-2.06-7.51-2.06h-37.84c-2.68,0-5.14.69-7.4,2.06-2.26,1.38-4.07,3.19-5.45,5.45-1.38,2.26-2.06,4.72-2.06,7.4v9.63c0,2.75.69,5.26,2.06,7.51,1.38,2.26,3.19,4.05,5.45,5.39,2.25,1.34,4.72,2.01,7.4,2.01h37.5c.76,0,1.41.29,1.95.86.53.57.8,1.24.8,2.01v8.94c0,.76-.27,1.43-.8,2.01-.54.57-1.19.86-1.95.86h-18.58s-33.59,0-33.59,0c.3,1.72.89,3.35,1.82,4.87,1.38,2.26,3.19,4.07,5.45,5.45,2.25,1.38,4.72,2.06,7.4,2.06h37.84c2.75,0,5.26-.69,7.51-2.06,2.25-1.38,4.05-3.19,5.39-5.45,1.34-2.26,2.01-4.72,2.01-7.4v-9.63c0-2.75-.67-5.26-2.01-7.51-1.34-2.25-3.14-4.05-5.39-5.39Z"/>
      </g>
    </g>
  </g>
</svg>